<svg xmlns="http://www.w3.org/2000/svg" version="1.1" xmlns:xlink="http://www.w3.org/1999/xlink" width="512" height="512" x="0" y="0" viewBox="0 0 512 512" style="enable-background:new 0 0 512 512" xml:space="preserve" class=""><g><linearGradient id="a" x1="35.19" x2="424.906" y1="388.519" y2="-1.197" gradientUnits="userSpaceOnUse"><stop offset="0" stop-color="#ffd8d8" stop-opacity="0"></stop><stop offset=".998" stop-color="#ffb2b2"></stop></linearGradient><path fill="url(#a)" d="M506.654 127.571C499.388 71.399 468.832 0 339.268 0c-89.477 0-90.686 42.86-185.991 21.61C83.824 6.125 14.766 57.209 5.166 128.571-5.19 205.555 50.497 240.846 68.575 305.437 88.076 375.109 102.082 512 188.852 512c95.678 0 100.618-74.035 162.591-155.271 59.629-78.166 170.626-109.984 155.211-229.158z" opacity="1" data-original="url(#a)" class=""></path><path fill="#0000cb10" d="m461.2 377.323-22.395-16.491c.989-5.777 1.545-11.708 1.545-17.763 0-6.024-.556-11.956-1.545-17.733l22.399-16.494c3.3-2.43 4.597-6.735 3.247-10.604-5.652-16.207-14.303-31.012-25.294-43.77-2.672-3.101-7.046-4.123-10.796-2.484l-25.484 11.135c-9.052-7.569-19.431-13.655-30.738-17.794l-3.088-27.589c-.456-4.07-3.526-7.349-7.549-8.11a136.023 136.023 0 0 0-25.289-2.36V89.856a8.76 8.76 0 0 0-8.76-8.76H55.783a8.76 8.76 0 0 0-8.76 8.76v244.468a8.76 8.76 0 0 0 8.76 8.76h30.11v87.737c0 5.925 4.803 10.728 10.728 10.728h58.73c5.925 0 10.728-4.803 10.728-10.728v-87.737h66.024c.001 6.05.526 11.976 1.514 17.748l-22.4 16.519c-3.299 2.433-4.592 6.74-3.239 10.609a135.792 135.792 0 0 0 25.286 43.74c2.671 3.102 7.046 4.124 10.797 2.485l25.483-11.135a104.577 104.577 0 0 0 30.769 17.794l3.088 27.615c.456 4.073 3.531 7.355 7.559 8.113a136.568 136.568 0 0 0 25.251 2.331c8.644 0 17.099-.811 25.291-2.36 4.024-.761 7.094-4.041 7.549-8.11l3.088-27.589c11.307-4.17 21.656-10.226 30.738-17.794l25.457 11.135c3.749 1.64 8.122.62 10.795-2.478a135.372 135.372 0 0 0 25.316-43.773c1.353-3.871.056-8.18-3.245-10.611zm-124.989 15.678c-27.566 0-49.894-22.352-49.902-49.916h41.145a8.76 8.76 0 0 0 8.76-8.76v-41.157c27.57.001 49.899 22.361 49.899 49.902 0 27.571-22.331 49.931-49.902 49.931z" opacity="1" data-original="#0000cb10" class=""></path><path fill="#ffffff" d="M336.211 103.098V310.32a8.76 8.76 0 0 1-8.76 8.76H55.781a8.76 8.76 0 0 1-8.76-8.76V103.098l4.999-5h278.837z" opacity="1" data-original="#ffffff" class=""></path><path fill="#d8d8ff" d="M310.951 209.63c-4.02.76-7.09 4.04-7.55 8.1l-3.09 27.59c-11.3 4.14-21.68 10.2-30.77 17.8l-25.43-11.14c-3.74-1.64-8.12-.62-10.79 2.48a135.16 135.16 0 0 0-25.34 43.75c-1.36 3.87-.06 8.17 3.24 10.61l13.91 10.26h67.32c8.48-15.44 24.89-25.91 43.76-25.91v-85.9c-8.64 0-17.08.81-25.26 2.36z" opacity="1" data-original="#d8d8ff"></path><path fill="#ff6c6c" d="M271.967 259.995h-33.931a5 5 0 0 1-5-5v-55.954a5 5 0 0 1 5-5h33.931a5 5 0 0 1 5 5v55.954a5 5 0 0 1-5 5zM336.214 103.098V65.856a8.76 8.76 0 0 0-8.76-8.76H55.783a8.76 8.76 0 0 0-8.76 8.76v37.241h289.191z" opacity="1" data-original="#ff6c6c" class=""></path><g fill="#fff"><circle cx="77.142" cy="82.055" r="5" fill="#ffffff" opacity="1" data-original="#ffffff" class=""></circle><circle cx="94.979" cy="82.055" r="5" fill="#ffffff" opacity="1" data-original="#ffffff" class=""></circle><circle cx="112.815" cy="82.055" r="5" fill="#ffffff" opacity="1" data-original="#ffffff" class=""></circle></g><path fill="#9393ff" d="m461.2 353.32-22.39-16.49c.98-5.77 1.54-11.71 1.54-17.76 0-6.03-.56-11.96-1.54-17.73l22.39-16.5c3.3-2.43 4.6-6.73 3.25-10.6-5.65-16.21-14.3-31.01-25.29-43.77-2.67-3.1-7.05-4.13-10.8-2.49l-25.48 11.14c-9.05-7.57-19.43-13.66-30.74-17.8l-3.09-27.58c-.45-4.07-3.52-7.35-7.55-8.11-8.19-1.55-16.65-2.36-25.29-2.36s-17.08.81-25.26 2.36c-4.02.76-7.09 4.04-7.55 8.1l-3.09 27.59c-11.3 4.14-21.68 10.2-30.77 17.8l-25.43-11.14c-3.74-1.64-8.11-.62-10.79 2.48a135.16 135.16 0 0 0-25.34 43.75c-1.36 3.87-.06 8.17 3.24 10.61l22.4 16.52c-.99 5.77-1.52 11.67-1.52 17.73 0 6.05.53 11.99 1.52 17.76l-22.4 16.52c-3.3 2.43-4.6 6.74-3.24 10.61 5.67 16.2 14.32 31 25.28 43.74 2.68 3.1 7.05 4.12 10.8 2.48l25.48-11.13a104.74 104.74 0 0 0 30.77 17.79l3.09 27.62c.46 4.07 3.53 7.35 7.56 8.11 8.19 1.54 16.63 2.33 25.25 2.33 8.64 0 17.1-.81 25.29-2.36 4.03-.76 7.1-4.04 7.55-8.11l3.09-27.59c11.31-4.17 21.65-10.22 30.74-17.79l25.45 11.13c3.75 1.64 8.13.62 10.8-2.47a135.583 135.583 0 0 0 25.32-43.78c1.35-3.87.05-8.18-3.25-10.61zm-124.99 34.45c-37.94 0-68.67-30.77-68.67-68.71 0-37.9 30.73-68.67 68.67-68.67s68.67 30.77 68.67 68.67c0 37.94-30.73 68.71-68.67 68.71z" opacity="1" data-original="#9393ff" class=""></path><path fill="#6c6cff" d="M336.211 244.05c-41.44 0-75.01 33.61-75.01 75.01 0 41.44 33.57 75.05 75.01 75.05s75.01-33.61 75.01-75.05c0-41.4-33.57-75.01-75.01-75.01zm0 124.95c-27.57 0-49.9-22.36-49.9-49.93 0-27.54 22.33-49.9 49.9-49.9s49.9 22.36 49.9 49.9c0 27.57-22.33 49.93-49.9 49.93z" opacity="1" data-original="#6c6cff"></path><path fill="#ffaa66" d="M195.755 192.58c0-2.99-.276-5.934-.767-8.801l11.117-8.186a4.635 4.635 0 0 0 1.612-5.263 67.18 67.18 0 0 0-12.554-21.723 4.63 4.63 0 0 0-5.358-1.233l-12.648 5.527a51.3 51.3 0 0 0-15.256-8.831l-1.532-13.693a4.627 4.627 0 0 0-3.747-4.025 67.498 67.498 0 0 0-12.552-1.172 67.41 67.41 0 0 0-12.538 1.171 4.626 4.626 0 0 0-3.746 4.025l-1.532 13.693a51.254 51.254 0 0 0-15.271 8.831l-12.622-5.526a4.63 4.63 0 0 0-5.357 1.226 67.079 67.079 0 0 0-12.577 21.715 4.633 4.633 0 0 0 1.607 5.265l11.117 8.199a52.006 52.006 0 0 0 0 17.617l-11.117 8.199a4.633 4.633 0 0 0-1.607 5.265 67.37 67.37 0 0 0 12.55 21.708 4.628 4.628 0 0 0 5.359 1.233l12.648-5.526a51.905 51.905 0 0 0 15.271 8.831l1.532 13.706a4.627 4.627 0 0 0 3.752 4.027 67.807 67.807 0 0 0 12.532 1.157c4.29 0 8.486-.403 12.552-1.172a4.627 4.627 0 0 0 3.747-4.025l1.532-13.693a51.85 51.85 0 0 0 15.256-8.831l12.635 5.526a4.629 4.629 0 0 0 5.358-1.23 67.179 67.179 0 0 0 12.564-21.725 4.634 4.634 0 0 0-1.611-5.266l-11.115-8.185c.49-2.866.766-5.81.766-8.815zm-51.685 24.781c-13.684 0-24.767-11.097-24.767-24.781 0-13.669 11.083-24.767 24.767-24.767s24.767 11.097 24.767 24.767c0 13.684-11.083 24.781-24.767 24.781zM245.075 142.219h-7.04a5 5 0 0 1-5-5v-7.04a5 5 0 0 1 5-5h7.04a5 5 0 0 1 5 5v7.04a5 5 0 0 1-5 5z" opacity="1" data-original="#ffaa66" class=""></path><g fill="#9393ff"><path d="M233.035 156.63a5 5 0 0 0 5 5h33.931a5 5 0 0 0 0-10h-33.931a5 5 0 0 0-5 5zM283.967 169.029h-45.931a5 5 0 0 0 0 10h45.931a5 5 0 0 0 0-10z" fill="#9393ff" opacity="1" data-original="#9393ff" class=""></path></g><path fill="#ff6c6c" d="M155.351 417.549h-58.73c-5.925 0-10.728-4.803-10.728-10.728V294.748c0-5.925 4.803-10.728 10.728-10.728h8.741l8.173 5h24.902l8.173-5h8.741c5.925 0 10.728 4.803 10.728 10.728v112.073c0 5.925-4.803 10.728-10.728 10.728z" opacity="1" data-original="#ff6c6c" class=""></path><path fill="#6c6cff" d="m143.65 296.206 2.96-12.186h-41.248l2.96 12.186a5.364 5.364 0 0 0 5.213 4.098h24.902a5.365 5.365 0 0 0 5.213-4.098z" opacity="1" data-original="#6c6cff"></path><g fill="#0000cb"><path d="m464.165 349.297-19.948-14.689a109.602 109.602 0 0 0 1.133-15.538c0-5.07-.381-10.273-1.133-15.508l19.952-14.693c5.082-3.742 7.094-10.283 5.004-16.276-5.81-16.659-14.634-31.93-26.228-45.388-4.136-4.803-10.801-6.33-16.586-3.803l-22.693 9.917c-8.231-6.5-17.255-11.725-26.896-15.574l-2.749-24.565c-.703-6.278-5.361-11.288-11.589-12.466a140.756 140.756 0 0 0-21.222-2.34V65.86c0-7.588-6.173-13.761-13.76-13.761H55.78c-7.587 0-13.76 6.173-13.76 13.761v244.46c0 7.587 6.173 13.76 13.76 13.76h25.113v26.414a5 5 0 1 0 10 0v-55.746a5.735 5.735 0 0 1 5.729-5.729h58.73a5.735 5.735 0 0 1 5.729 5.729v112.073a5.735 5.735 0 0 1-5.729 5.728h-58.73a5.735 5.735 0 0 1-5.729-5.728v-26.79a5 5 0 1 0-10 0v26.79c0 8.672 7.056 15.728 15.729 15.728h58.73c8.673 0 15.729-7.056 15.729-15.728V324.08h30.76a5 5 0 1 0 0-10h-30.76v-19.332c0-8.673-7.056-15.729-15.729-15.729h-58.73c-8.673 0-15.729 7.056-15.729 15.729v19.332H55.78a3.765 3.765 0 0 1-3.76-3.76V65.86a3.765 3.765 0 0 1 3.76-3.761h271.67a3.765 3.765 0 0 1 3.76 3.761v112.513a140.391 140.391 0 0 0-21.191 2.339c-6.228 1.18-10.884 6.189-11.586 12.467l-2.749 24.564a107.847 107.847 0 0 0-26.926 15.573l-22.64-9.913c-5.777-2.528-12.439-1.008-16.58 3.782-11.596 13.415-20.438 28.68-26.279 45.371-2.096 5.993-.091 12.538 4.991 16.285l19.958 14.719a110.297 110.297 0 0 0-1.104 15.509c0 5.171.371 10.385 1.104 15.539l-19.958 14.719c-5.082 3.748-7.088 10.292-4.991 16.284 5.83 16.662 14.65 31.92 26.216 45.35 4.136 4.807 10.802 6.334 16.588 3.806l22.698-9.918a109.208 109.208 0 0 0 26.92 15.569l2.751 24.597c.702 6.286 5.365 11.298 11.604 12.472a142.042 142.042 0 0 0 26.175 2.417c8.809 0 17.63-.823 26.22-2.447 6.229-1.178 10.887-6.188 11.59-12.467l2.749-24.571a109.168 109.168 0 0 0 26.891-15.568l22.671 9.916c5.777 2.525 12.445 1.003 16.585-3.794 11.585-13.429 20.417-28.7 26.249-45.389 2.095-5.998.085-12.543-5.001-16.287zm-4.439 12.987c-5.417 15.498-13.62 29.682-24.381 42.155-1.258 1.457-3.272 1.924-5.007 1.164l-25.457-11.135a5.001 5.001 0 0 0-5.205.74c-8.785 7.321-18.632 13.021-29.267 16.943a5 5 0 0 0-3.239 4.136l-3.087 27.589c-.212 1.888-1.622 3.396-3.51 3.753-15.987 3.022-32.869 3.002-48.688.028-1.891-.355-3.303-1.864-3.515-3.755l-3.088-27.615a5.003 5.003 0 0 0-3.238-4.136 99.364 99.364 0 0 1-29.298-16.943 5 5 0 0 0-5.203-.741l-25.484 11.136c-1.74.758-3.751.29-5.006-1.167-10.746-12.479-18.94-26.652-24.355-42.128-.638-1.824-.041-3.807 1.487-4.933l22.399-16.52a5 5 0 0 0 1.96-4.868 100.57 100.57 0 0 1-1.442-16.919c0-5.617.485-11.299 1.442-16.889a5 5 0 0 0-1.96-4.868l-22.4-16.52c-1.527-1.126-2.125-3.109-1.487-4.934 5.424-15.499 13.635-29.675 24.405-42.134 1.257-1.454 3.268-1.923 5.005-1.161l25.432 11.135a4.993 4.993 0 0 0 5.214-.745 98.015 98.015 0 0 1 29.278-16.934 5 5 0 0 0 3.25-4.14l3.088-27.591c.211-1.887 1.621-3.395 3.509-3.752 15.952-3.02 32.752-3.014 48.694.001 1.888.356 3.298 1.865 3.51 3.752l3.087 27.59a5.002 5.002 0 0 0 3.25 4.14c10.619 3.887 20.46 9.584 29.25 16.935a5.005 5.005 0 0 0 5.209.746l25.484-11.136c1.737-.763 3.751-.291 5.006 1.166 10.771 12.503 18.967 26.686 24.361 42.152.637 1.825.037 3.807-1.491 4.932l-22.398 16.495a5.003 5.003 0 0 0-1.964 4.869c.978 5.711 1.473 11.393 1.473 16.89 0 5.516-.495 11.208-1.473 16.92a5.001 5.001 0 0 0 1.964 4.869l22.396 16.491c1.529 1.129 2.127 3.111 1.49 4.937z" fill="#0000cb" opacity="1" data-original="#0000cb" class=""></path><path d="M336.211 264.168c-.001 0-.001 0 0 0h-.001c-30.273.001-54.901 24.629-54.901 54.902 0 30.289 24.629 54.931 54.902 54.931s54.902-24.642 54.902-54.931c0-30.273-24.629-54.902-54.902-54.902zm-5.001 10.285v35.867a3.765 3.765 0 0 1-3.76 3.76h-35.858c2.309-20.775 18.844-37.313 39.618-39.627zm5.001 89.548c-23.066 0-42.117-17.497-44.616-39.921h35.856c7.587 0 13.76-6.173 13.76-13.76v-35.867c22.414 2.495 39.903 21.549 39.903 44.617-.001 24.775-20.144 44.931-44.903 44.931z" fill="#0000cb" opacity="1" data-original="#0000cb" class=""></path></g><path fill="#ffffff" d="m145.066 350.244-7.958-7.958c3.32-6.337 2.321-14.364-2.998-19.683-6.55-6.549-17.206-6.549-23.756 0-6.549 6.549-6.549 17.207 0 23.756a16.749 16.749 0 0 0 11.878 4.912 16.82 16.82 0 0 0 7.805-1.914l7.958 7.958c.977.976 2.256 1.464 3.536 1.464s2.559-.488 3.536-1.464a5.002 5.002 0 0 0-.001-7.071zm-27.641-10.956a6.806 6.806 0 0 1 0-9.613c1.325-1.325 3.066-1.988 4.807-1.988s3.481.663 4.807 1.988a6.806 6.806 0 0 1 0 9.613 6.805 6.805 0 0 1-9.614 0zM111.02 389.541a5 5 0 0 0 5 5h19.931a5 5 0 0 0 0-10H116.02a5 5 0 0 0-5 5z" opacity="1" data-original="#ffffff" class=""></path><path fill="#ff6c6c" d="M415.979 175.717a5 5 0 0 1-5-5c0-3.032-2.468-5.5-5.5-5.5-2.762 0-5-2.238-5-5s2.238-5 5-5c3.032 0 5.5-2.468 5.5-5.5 0-2.762 2.238-5 5-5s5 2.238 5 5c0 3.032 2.468 5.5 5.5 5.5 2.762 0 5 2.238 5 5s-2.238 5-5 5a5.507 5.507 0 0 0-5.5 5.5 5 5 0 0 1-5 5z" opacity="1" data-original="#ff6c6c" class=""></path><path fill="#6c6cff" d="M38.586 408.724a5 5 0 0 1-5-5c0-3.032-2.467-5.5-5.5-5.5a5 5 0 1 1 0-10c3.033 0 5.5-2.468 5.5-5.5a5 5 0 1 1 10 0c0 3.032 2.467 5.5 5.5 5.5a5 5 0 1 1 0 10 5.506 5.506 0 0 0-5.5 5.5 5 5 0 0 1-5 5z" opacity="1" data-original="#6c6cff"></path><path fill="#ff9c33" d="M195.455 465.787a5 5 0 0 1-5-5c0-3.032-2.467-5.5-5.5-5.5a5 5 0 1 1 0-10c3.033 0 5.5-2.468 5.5-5.5a5 5 0 1 1 10 0c0 3.032 2.467 5.5 5.5 5.5a5 5 0 1 1 0 10 5.506 5.506 0 0 0-5.5 5.5 5 5 0 0 1-5 5z" opacity="1" data-original="#ff9c33"></path><path fill="#6c6cff" d="M376.841 129.989a4.98 4.98 0 0 1-3.535-1.465l-10.5-10.5a4.998 4.998 0 0 1 0-7.07l10.5-10.5a4.998 4.998 0 0 1 7.07 0l10.5 10.5a4.998 4.998 0 0 1 0 7.07l-10.5 10.5a4.981 4.981 0 0 1-3.535 1.465zm-3.429-15.5 3.429 3.429 3.429-3.429-3.429-3.429z" opacity="1" data-original="#6c6cff"></path><path fill="#ff6c6c" d="M415.979 473.59a4.98 4.98 0 0 1-3.535-1.465l-10.5-10.5a4.998 4.998 0 0 1 0-7.07l10.5-10.5a4.998 4.998 0 0 1 7.07 0l10.5 10.5a4.998 4.998 0 0 1 0 7.07l-10.5 10.5a4.981 4.981 0 0 1-3.535 1.465zm-3.429-15.5 3.429 3.429 3.429-3.429-3.429-3.429z" opacity="1" data-original="#ff6c6c" class=""></path></g></svg>