<svg xmlns="http://www.w3.org/2000/svg" version="1.1" xmlns:xlink="http://www.w3.org/1999/xlink" width="856" height="582" x="0" y="0" viewBox="0 0 512 512" style="enable-background:new 0 0 512 512" xml:space="preserve" class=""><g><linearGradient id="a"><stop offset="0" stop-color="#fe646f"></stop><stop offset=".235" stop-color="#fa5964"></stop><stop offset=".641" stop-color="#ef3d49"></stop><stop offset="1" stop-color="#e41f2d"></stop></linearGradient><linearGradient xlink:href="#a" id="e" x1="208.168" x2="285.871" y1="321.914" y2="199.301" gradientTransform="matrix(1 0 0 -1 0 514)" gradientUnits="userSpaceOnUse"></linearGradient><linearGradient id="b"><stop offset="0" stop-color="#a72b2b" stop-opacity="0"></stop><stop offset=".156" stop-color="#a32b2a" stop-opacity=".066"></stop><stop offset=".386" stop-color="#982c29" stop-opacity=".248"></stop><stop offset=".661" stop-color="#872f28" stop-opacity=".545"></stop><stop offset=".97" stop-color="#6f3226" stop-opacity=".956"></stop><stop offset="1" stop-color="#6d3326"></stop></linearGradient><linearGradient xlink:href="#b" id="f" x1="287.714" x2="404.344" y1="231.317" y2="142.715" gradientTransform="matrix(1 0 0 -1 0 514)" gradientUnits="userSpaceOnUse"></linearGradient><linearGradient xlink:href="#b" id="g" x1="245.402" x2="245.402" y1="158.901" y2="36.273" gradientTransform="matrix(1 0 0 -1 0 514)" gradientUnits="userSpaceOnUse"></linearGradient><linearGradient xlink:href="#b" id="h" x1="151.834" x2="206.984" y1="351.488" y2="408.446" gradientTransform="matrix(1 0 0 -1 0 514)" gradientUnits="userSpaceOnUse"></linearGradient><linearGradient xlink:href="#b" id="i" x1="244.695" x2="244.695" y1="109.238" y2="261.682" gradientTransform="matrix(1 0 0 -1 0 514)" gradientUnits="userSpaceOnUse"></linearGradient><linearGradient id="c"><stop offset="0" stop-color="#f3faff"></stop><stop offset="1" stop-color="#d5daf3"></stop></linearGradient><linearGradient xlink:href="#c" id="j" x1="245.4" x2="245.4" y1="297.436" y2="122.79" gradientTransform="matrix(1 0 0 -1 0 514)" gradientUnits="userSpaceOnUse"></linearGradient><linearGradient xlink:href="#b" id="k" x1="409.713" x2="405.792" y1="234.659" y2="284.56" gradientTransform="matrix(1 0 0 -1 0 514)" gradientUnits="userSpaceOnUse"></linearGradient><linearGradient xlink:href="#c" id="l" x1="360.87" x2="470.915" y1="435.412" y2="325.367" gradientTransform="matrix(1 0 0 -1 0 514)" gradientUnits="userSpaceOnUse"></linearGradient><linearGradient xlink:href="#a" id="m" x1="391.405" x2="437.285" y1="404.027" y2="359.878" gradientTransform="matrix(1 0 0 -1 0 514)" gradientUnits="userSpaceOnUse"></linearGradient><linearGradient id="d"><stop offset="0" stop-color="#dbd5ef" stop-opacity="0"></stop><stop offset=".267" stop-color="#d8d2ec" stop-opacity=".023"></stop><stop offset=".443" stop-color="#d1c9e2" stop-opacity=".098"></stop><stop offset=".593" stop-color="#c4b9d1" stop-opacity=".225"></stop><stop offset=".729" stop-color="#b2a4ba" stop-opacity=".405"></stop><stop offset=".855" stop-color="#9a889c" stop-opacity=".638"></stop><stop offset=".971" stop-color="#7e6678" stop-opacity=".92"></stop><stop offset="1" stop-color="#765d6e"></stop></linearGradient><linearGradient xlink:href="#d" id="n" x1="415.629" x2="427.315" y1="369.34" y2="283.64" gradientTransform="matrix(1 0 0 -1 0 514)" gradientUnits="userSpaceOnUse"></linearGradient><linearGradient xlink:href="#d" id="o" x1="416.045" x2="510.509" y1="382.028" y2="367.42" gradientTransform="matrix(1 0 0 -1 0 514)" gradientUnits="userSpaceOnUse"></linearGradient><linearGradient id="p" x1="447.82" x2="496.241" y1="348.462" y2="300.041" gradientTransform="matrix(1 0 0 -1 0 514)" gradientUnits="userSpaceOnUse"><stop offset="0" stop-color="#d5daf3" stop-opacity="0"></stop><stop offset=".139" stop-color="#d8ddf4" stop-opacity=".114"></stop><stop offset=".44" stop-color="#e1e6f7" stop-opacity=".406"></stop><stop offset=".878" stop-color="#eff5fd" stop-opacity=".867"></stop><stop offset="1" stop-color="#f3faff"></stop></linearGradient><path fill="url(#e)" d="M463.982 271.239c-4.76 26.712-15.991 52.865-33.559 78.244-21.464 31.008-52.152 54.246-87.034 68.582-27.698 11.384-52.206 28.272-71.932 49.171-14.076 14.913-38.032 14.913-52.108 0-19.741-20.903-44.264-37.798-71.977-49.187-34.85-14.322-65.501-37.553-86.957-68.526-17.587-25.387-28.83-51.553-33.591-78.284-6.817-38.253 2.904-77.31 26.701-107.167 22.014-27.632 53.229-43.776 87.883-45.464 2.036-.11 4.103-.158 6.139-.158 32.461 0 63.107 12.514 86.289 35.238a124.992 124.992 0 0 1 11.567 13.019c3.519-4.576 7.385-8.916 11.567-13.035 23.182-22.709 53.828-35.223 86.289-35.223 2.036 0 4.103.047 6.139.158 34.655 1.689 65.869 17.832 87.899 45.48 23.781 29.842 33.502 68.9 26.685 107.152z" opacity="1" data-original="url(#e)"></path><path fill="url(#f)" d="M349.397 118.608c-2.036-.11-4.103-.158-6.139-.158-32.461 0-63.107 12.514-86.289 35.223-4.182 4.119-8.048 8.458-11.567 13.035a124.992 124.992 0 0 0-11.567-13.019 123.36 123.36 0 0 0-33.291-23.299v319.348a201.784 201.784 0 0 1 18.804 17.5c14.076 14.913 38.032 14.913 52.108 0 19.726-20.898 44.234-37.787 71.932-49.171 34.881-14.336 65.569-37.574 87.034-68.582 17.568-25.379 28.799-51.532 33.559-78.244 6.817-38.253-2.904-77.31-26.685-107.151-22.03-27.65-53.244-43.794-87.899-45.482z" opacity="1" data-original="url(#f)" class=""></path><path fill="url(#g)" d="M44.361 322.702c4.582 9.028 9.923 17.973 16.053 26.821 21.456 30.973 52.106 54.204 86.957 68.526 27.714 11.389 52.236 28.284 71.977 49.187 14.076 14.913 38.032 14.913 52.108 0 19.726-20.898 44.234-37.787 71.932-49.171 34.881-14.336 65.569-37.574 87.034-68.582 6.116-8.836 11.446-17.767 16.021-26.781z" opacity="1" data-original="url(#g)"></path><path fill="url(#h)" d="M233.836 153.681c-23.184-22.717-53.83-35.228-86.294-35.228-2.032 0-4.097.05-6.134.15-34.65 1.689-65.863 17.839-87.891 45.476-23.784 29.842-33.516 68.901-26.7 107.163 4.842 27.178 16.398 53.769 34.495 79.556l184.089-184.089a124.973 124.973 0 0 0-11.565-13.028z" opacity="1" data-original="url(#h)"></path><path fill="url(#i)" d="M430.422 349.483c12.134-17.529 21.241-35.427 27.285-53.623h-97.445l-35.644 48.222-49.155-94.588-42.787 136.733-59.187-196.04-29.25 101.228H31.682c6 19.744 15.594 39.144 28.732 58.108 21.456 30.973 52.106 54.204 86.957 68.526 27.714 11.389 52.236 28.284 71.977 49.187 14.076 14.913 38.032 14.913 52.108 0 19.726-20.898 44.234-37.787 71.932-49.171 34.882-14.335 65.57-37.574 87.034-68.582z" opacity="1" data-original="url(#i)"></path><path fill="url(#j)" d="M233.802 411.009c-10.645 0-19.546-7.229-21.717-17.69L177.419 226.28c-.457-2.203-3.602-2.209-4.067-.007l-14.07 66.57c-2.158 10.204-11.292 17.61-21.721 17.61H12.5c-6.904 0-12.5-5.596-12.5-12.5s5.596-12.5 12.5-12.5h119.219a4.406 4.406 0 0 0 4.311-3.495l17.677-83.635c2.193-10.374 11.121-17.61 21.719-17.61l.042.001c10.617.019 19.54 7.293 21.698 17.689l34.228 164.931c.465 2.242 3.683 2.193 4.08-.062l20.197-114.749c1.806-10.262 10.005-17.618 20.403-18.304 10.4-.695 19.493 5.528 22.632 15.465l25.001 79.149c.569 1.8 3.049 1.97 3.858.264l12.782-26.955c3.654-7.708 11.528-12.689 20.06-12.689H478.3c6.904 0 12.5 5.596 12.5 12.5s-5.596 12.5-12.5 12.5H364.965c-1.702 0-3.252.98-3.981 2.518l-16.147 34.053c-3.938 8.306-12.409 13.257-21.578 12.638-9.169-.629-16.883-6.698-19.652-15.463l-22.74-71.99c-.655-2.073-3.65-1.875-4.027.266l-21.153 120.181c-1.873 10.64-10.725 18.186-21.527 18.35-.119.002-.24.003-.358.003z" opacity="1" data-original="url(#j)" class=""></path><path fill="url(#k)" d="m407.619 137.143-63.438 63.438 108.542 108.542c5.215-12.485 8.984-25.119 11.258-37.883 6.817-38.253-2.904-77.31-26.685-107.151-8.604-10.799-18.614-19.833-29.677-26.946z" opacity="1" data-original="url(#k)"></path><circle cx="413.93" cy="131.649" r="98.07" fill="url(#l)" opacity="1" data-original="url(#l)"></circle><path fill="url(#m)" d="M464.679 114.325h-33.425V80.9a8.852 8.852 0 0 0-8.852-8.852H405.46a8.852 8.852 0 0 0-8.852 8.852v33.425h-33.425a8.852 8.852 0 0 0-8.852 8.852v16.942a8.852 8.852 0 0 0 8.852 8.852h33.425v33.425a8.852 8.852 0 0 0 8.852 8.852h16.942a8.852 8.852 0 0 0 8.852-8.852v-33.425h33.425a8.852 8.852 0 0 0 8.852-8.852v-16.942a8.852 8.852 0 0 0-8.852-8.852z" opacity="1" data-original="url(#m)"></path><path fill="url(#n)" d="M315.861 131.649c0 54.162 43.907 98.07 98.07 98.07S512 185.811 512 131.649c0-2.711-.115-5.396-.331-8.051H316.192a99.245 99.245 0 0 0-.331 8.051z" opacity="1" data-original="url(#n)" class=""></path><path fill="url(#o)" d="M413.93 33.579c-6.318 0-12.494.605-18.479 1.746v192.647a98.595 98.595 0 0 0 18.479 1.746c54.162 0 98.07-43.907 98.07-98.07 0-54.162-43.907-98.069-98.07-98.069z" opacity="1" data-original="url(#o)"></path><path fill="url(#p)" d="M482.863 61.899 344.181 200.581c17.778 17.988 42.46 29.137 69.749 29.137 54.162 0 98.07-43.907 98.07-98.07 0-27.288-11.15-51.97-29.137-69.749z" opacity="1" data-original="url(#p)"></path></g></svg>